HIERARCHY
ROOT root
{
	OFFSET 0.000000 0.000000 0.000000
	CHANNELS 6 Xposition Yposition Zposition Zrotation Yrotation Xrotation
	JOINT lhip
	{
		OFFSET 0.058581 -0.082280 -0.017664
		CHANNELS 3 Zrotation Yrotation Xrotation
		JOINT lknee
		{
			OFFSET 0.043451 -0.386469 0.008037
			CHANNELS 3 Zrotation Yrotation Xrotation
			JOINT lankle
			{
				OFFSET -0.014790 -0.426874 -0.037428
				CHANNELS 3 Zrotation Yrotation Xrotation
				JOINT ltoe
				{
					OFFSET 0.041054 -0.060286 0.122042
					CHANNELS 3 Zrotation Yrotation Xrotation
					End Site
					{
						OFFSET 0.000000 0.000000 0.000000
					}
				}
			}
		}
	}
	JOINT rhip
	{
		OFFSET -0.060310 -0.090513 -0.013543
		CHANNELS 3 Zrotation Yrotation Xrotation
		JOINT rknee
		{
			OFFSET -0.043257 -0.383688 -0.004843
			CHANNELS 3 Zrotation Yrotation Xrotation
			JOINT rankle
			{
				OFFSET 0.019056 -0.420046 -0.034562
				CHANNELS 3 Zrotation Yrotation Xrotation
				JOINT rtoe
				{
					OFFSET -0.034840 -0.062106 0.130323
					CHANNELS 3 Zrotation Yrotation Xrotation
					End Site
					{
						OFFSET 0.000000 0.000000 0.000000
					}
				}
			}
		}
	}
	JOINT lowerback
	{
		OFFSET 0.004439 0.124404 -0.038385
		CHANNELS 3 Zrotation Yrotation Xrotation
		JOINT upperback
		{
			OFFSET 0.004488 0.137956 0.026820
			CHANNELS 3 Zrotation Yrotation Xrotation
			JOINT chest
			{
				OFFSET -0.002265 0.056032 0.002855
				CHANNELS 3 Zrotation Yrotation Xrotation
				JOINT lowerneck
				{
					OFFSET -0.013390 0.211636 -0.033468
					CHANNELS 3 Zrotation Yrotation Xrotation
					JOINT upperneck
					{
						OFFSET 0.010113 0.088937 0.050410
						CHANNELS 3 Zrotation Yrotation Xrotation
						End Site
						{
							OFFSET 0.000000 0.000000 0.000000
						}
					}
				}
				JOINT lclavicle
				{
					OFFSET 0.071702 0.114000 -0.018898
					CHANNELS 3 Zrotation Yrotation Xrotation
					JOINT lshoulder
					{
						OFFSET 0.122921 0.045205 -0.019046
						CHANNELS 3 Zrotation Yrotation Xrotation
						JOINT lelbow
						{
							OFFSET 0.255332 -0.015649 -0.022946
							CHANNELS 3 Zrotation Yrotation Xrotation
							JOINT lwrist
							{
								OFFSET 0.265709 0.012698 -0.007375
								CHANNELS 3 Zrotation Yrotation Xrotation
								End Site
								{
									OFFSET 0.000000 0.000000 0.000000
								}
							}
						}
					}
				}
				JOINT rclavicle
				{
					OFFSET -0.082954 0.112472 -0.023707
					CHANNELS 3 Zrotation Yrotation Xrotation
					JOINT rshoulder
					{
						OFFSET -0.113228 0.046853 -0.008472
						CHANNELS 3 Zrotation Yrotation Xrotation
						JOINT relbow
						{
							OFFSET -0.260127 -0.014369 -0.031269
							CHANNELS 3 Zrotation Yrotation Xrotation
							JOINT rwrist
							{
								OFFSET -0.269108 0.006794 -0.006027
								CHANNELS 3 Zrotation Yrotation Xrotation
								End Site
								{
									OFFSET 0.000000 0.000000 0.000000
								}
							}
						}
					}
				}
			}
		}
	}
}
MOTION
Frames: 11
Frame Time: 0.033333
1.704922 0.286128 0.969483 -88.346857 1.329702 93.904405 1.445096 3.371113 7.050246 -3.626867 -13.130920 7.880560 1.073824 9.672468 -17.701908 0.000000 -0.000000 0.000000 -5.441490 0.624031 -32.704536 2.616408 -12.231623 28.081070 4.739588 -9.949429 -12.737720 0.000000 -0.000000 0.000000 1.185755 -6.065729 18.442774 2.418346 0.730086 -2.124083 1.651919 -1.972757 0.839914 -0.187888 7.322582 -15.319138 -4.462829 -2.779727 9.147813 -26.587095 -0.190609 0.296437 -54.160664 -8.052125 12.044206 1.366382 -24.235244 13.384825 -3.161090 -6.915037 1.605402 30.541771 3.148674 0.933901 48.707659 6.697756 14.000392 -12.170862 27.184946 -8.320777 1.655841 5.971340 -4.505863 
1.684583 0.287640 0.968857 -88.387029 1.339595 94.528814 1.753599 3.580988 7.836785 -3.652157 -13.145238 7.586637 0.234345 9.263436 -17.145863 0.000000 -0.000000 0.000000 -4.746160 1.099571 -33.345523 2.786848 -10.690099 21.444195 6.351238 -8.738229 -8.902790 0.000000 -0.000000 0.000000 1.323797 -6.316573 18.290964 2.419918 0.557769 -2.187022 1.812626 -2.025112 0.621494 -0.501702 7.290740 -15.908035 -4.074827 -2.521855 9.016037 -26.575138 -0.086185 0.336046 -54.073186 -8.469120 12.020607 1.730699 -23.660182 12.542285 -2.967119 -7.258634 2.045171 30.443227 2.814761 0.979788 48.678362 6.570743 14.158359 -11.622728 25.854400 -8.131552 1.679505 5.910635 -4.285036 
1.662189 0.290133 0.967343 -87.928491 1.338487 94.977153 2.333135 3.748548 8.628758 -3.820780 -13.529815 7.821155 -0.765619 8.670680 -16.707397 0.000000 -0.000000 0.000000 -4.000511 1.506848 -33.652568 2.525251 -9.068265 17.454442 7.413704 -7.734860 -7.188732 0.000000 -0.000000 0.000000 1.409082 -6.578306 18.182127 2.614457 0.265152 -2.060359 2.001390 -2.190580 0.469898 -0.697469 7.372453 -16.573260 -3.831590 -2.492374 8.718072 -26.513529 -0.165107 0.395231 -53.950755 -8.837523 12.077056 1.916680 -23.756915 12.133533 -2.662147 -7.577199 2.200617 30.423255 2.553724 0.976277 48.483815 6.282307 14.109446 -11.209739 24.761065 -7.994318 1.676911 5.846779 -4.199187 
1.637353 0.293324 0.965246 -87.164949 1.306548 95.265502 3.030704 3.745134 9.434361 -4.070805 -14.197239 8.596965 -1.818176 8.097903 -16.234356 0.000000 -0.000000 0.000000 -3.435684 1.991882 -33.815977 2.468897 -7.933494 16.996625 7.495046 -7.023330 -6.928891 0.000000 -0.000000 0.000000 1.457105 -6.921749 18.023102 2.941665 0.008737 -1.765874 2.145116 -2.396713 0.374094 -0.760427 7.484766 -17.167794 -3.753160 -2.629533 8.340814 -26.461175 -0.350729 0.487020 -53.790144 -9.113430 12.203129 2.062123 -24.489285 12.014756 -2.386880 -7.804912 1.984450 30.503821 2.392787 1.012033 48.197890 5.848542 13.872202 -11.021834 23.803041 -8.010574 1.689540 5.769052 -4.317477 
1.609846 0.297280 0.963448 -86.486425 1.257868 95.516682 3.671110 3.522620 10.134490 -4.342172 -15.020273 9.900426 -2.892661 7.768748 -15.338630 0.000000 -0.000000 0.000000 -3.021063 2.841596 -34.004749 2.643207 -6.712938 19.630493 5.749994 -6.226354 -6.324417 0.000000 -0.000000 0.000000 1.468536 -7.292318 17.797789 3.321228 -0.029627 -1.467345 2.204948 -2.556825 0.279962 -0.749368 7.533125 -17.728911 -3.800652 -2.771051 8.117654 -26.543060 -0.328105 0.465017 -53.534937 -9.211926 12.443340 2.228273 -25.804630 12.235077 -2.288234 -7.972376 1.499459 30.765891 2.103971 1.038445 47.838999 5.383810 13.642702 -11.035966 22.918069 -8.040144 1.839395 5.575445 -4.551521 
1.579566 0.301515 0.963922 -86.096017 1.235239 95.634500 4.066536 3.123543 10.683463 -4.498666 -15.799557 11.929238 -4.389709 7.627765 -13.635943 0.000000 -0.000000 0.000000 -2.846341 3.935678 -34.119892 2.509907 -6.396668 23.264451 3.865348 -6.524732 -7.579018 0.000000 -0.000000 0.000000 1.576272 -7.744874 17.756940 3.607435 0.191161 -1.246038 2.139732 -2.563398 0.173031 -0.700610 7.695279 -18.423666 -4.028224 -2.984754 8.062644 -26.896362 0.031655 0.341207 -53.202737 -9.208294 12.707860 2.626770 -27.521915 12.233595 -2.130001 -8.075736 0.998103 31.285917 1.794298 0.947249 47.381097 4.890338 13.479374 -11.168431 21.951815 -8.391860 1.889604 5.382818 -4.768408 
1.546441 0.305671 0.967252 -85.803866 1.281568 95.705640 4.260357 2.520436 10.616810 -4.667294 -16.055041 15.135033 -6.250979 7.482752 -10.659304 0.000000 -0.000000 0.000000 -2.666389 4.850462 -33.222206 2.411523 -6.766273 25.420170 2.673825 -7.249884 -10.001467 0.000000 -0.000000 0.000000 2.009035 -8.126296 17.561173 3.773507 0.274163 -0.971307 1.981597 -2.463944 0.086722 -0.791885 7.854351 -18.925502 -4.235815 -3.115910 7.777714 -27.253722 0.514978 0.360945 -53.219824 -9.087658 12.857441 3.444741 -29.342494 11.632010 -1.835572 -8.110500 0.092253 31.608623 1.680101 0.993708 47.215328 4.457574 13.194520 -11.324475 20.832290 -8.979784 1.653460 5.179229 -5.200904 
1.511375 0.310541 0.972493 -85.700418 1.334216 95.966370 4.147643 1.696560 8.976750 -4.986201 -15.562504 20.385434 -7.988572 7.463898 -5.453109 0.000000 -0.000000 0.000000 -1.829569 5.118173 -31.252029 2.406671 -6.480515 25.770812 0.970466 -6.987147 -11.842665 0.000000 -0.000000 0.000000 2.603685 -7.934547 16.943933 3.895471 0.081576 -0.764739 1.846891 -2.404944 0.060260 -1.074296 7.848069 -19.083050 -4.280189 -3.071480 7.498466 -27.335843 0.968369 0.428425 -53.593702 -8.767423 13.082835 4.077369 -31.015726 11.146925 -1.610343 -8.055126 -1.234876 31.536097 1.562877 1.204946 47.388885 4.154824 12.858899 -11.254149 19.837461 -9.135550 1.407300 4.974229 -5.899112 
1.475968 0.315966 0.978486 -86.014879 1.314764 96.307588 3.604171 0.453762 5.467010 -5.604321 -14.222169 27.946543 -8.628808 7.515119 2.213368 0.000000 -0.000000 0.000000 -0.695545 5.046805 -28.797141 2.306132 -5.707513 25.088152 -0.879760 -6.635251 -13.090094 0.000000 -0.000000 0.000000 3.079044 -7.020508 16.454634 3.978113 -0.084497 -0.860221 1.751742 -2.326878 -0.015137 -1.445959 7.402223 -18.977777 -4.089752 -2.891415 7.229022 -27.221767 1.392021 0.444117 -53.868870 -8.364078 13.556661 3.920809 -32.895648 11.811468 -1.708507 -7.898182 -2.267022 31.233626 1.245032 1.356431 47.688146 3.744498 12.747509 -11.008290 19.610793 -8.684560 1.261359 4.870958 -6.493921 
1.441042 0.321134 0.983916 -86.647427 1.227083 96.278337 2.915579 -1.019833 1.028519 -6.697731 -12.226181 36.839376 -7.444355 7.632487 9.877889 0.000000 -0.000000 0.000000 0.326924 4.940689 -25.780742 2.285209 -4.685604 23.987943 -2.512813 -6.358495 -14.125005 0.000000 -0.000000 0.000000 3.307144 -5.695837 16.651970 4.012853 -0.181995 -1.055723 1.677878 -2.105252 -0.129463 -1.762270 6.438883 -18.823137 -3.639978 -2.561852 6.702443 -27.095477 1.633602 0.503783 -53.781476 -7.894931 14.066517 3.234852 -35.671043 13.672209 -2.031076 -7.738655 -2.970491 30.859071 1.119772 1.620293 47.923938 3.206463 12.794006 -10.859561 20.362964 -8.043856 1.243801 4.850243 -6.935667 
1.406693 0.325914 0.987865 -87.437403 1.001846 95.970520 2.282469 -2.559962 -3.758396 -7.815023 -9.443299 45.350608 -5.271119 8.093193 13.337759 0.000000 -0.000000 0.000000 1.161866 4.565769 -22.420229 2.258248 -3.411812 22.711143 -3.645129 -6.143497 -15.071793 0.000000 -0.000000 0.000000 3.276463 -4.131216 17.273120 3.955886 -0.297873 -1.223092 1.606664 -1.777402 -0.019328 -1.890870 5.418385 -19.033030 -3.191722 -2.391234 6.315399 -27.067348 1.637178 0.497526 -53.437497 -7.438748 14.476729 2.497156 -38.950627 15.675427 -2.078178 -7.774801 -3.593747 30.641911 1.357995 1.847911 47.909785 2.897761 12.957523 -10.760294 21.464820 -7.419726 1.231314 4.818199 -7.253455 
